<svg xmlns="http://www.w3.org/2000/svg" width="286" height="44" viewBox="0 0 286 44" fill="none">
  <defs>
    <linearGradient id="frame" x1="4" y1="8" x2="276" y2="38" gradientUnits="userSpaceOnUse">
      <stop offset="0" stop-color="#10100f" stop-opacity=".93"/>
      <stop offset=".42" stop-color="#070707" stop-opacity=".9"/>
      <stop offset="1" stop-color="#000" stop-opacity=".86"/>
    </linearGradient>
    <linearGradient id="edge" x1="234" y1="7" x2="279" y2="37" gradientUnits="userSpaceOnUse">
      <stop offset="0" stop-color="#4c1905" stop-opacity=".1"/>
      <stop offset=".42" stop-color="#8a3009" stop-opacity=".55"/>
      <stop offset="1" stop-color="#e36d1d" stop-opacity=".92"/>
    </linearGradient>
    <linearGradient id="burn" x1="0" y1="6" x2="278" y2="44" gradientUnits="userSpaceOnUse">
      <stop offset="0" stop-color="#6f2308" stop-opacity=".4"/>
      <stop offset=".46" stop-color="#120806" stop-opacity=".1"/>
      <stop offset="1" stop-color="#ff7b1d" stop-opacity=".42"/>
    </linearGradient>
    <filter id="shadow" x="-8" y="0" width="306" height="54" color-interpolation-filters="sRGB">
      <feDropShadow dx="0" dy="5" stdDeviation="4" flood-color="#000" flood-opacity=".55"/>
    </filter>
  </defs>

  <path d="M9 10h257c6.2 0 10.6 4.9 9.8 10.7l-.8 5.9c-.7 5.1-5.1 8.9-10.3 8.9H8.4C3.2 35.5-.9 31.2.2 26.1l1.5-7.5C2.6 13.6 5.5 10 9 10Z" fill="url(#burn)"/>
  <g filter="url(#shadow)">
    <path d="M8.4 7.5h257c6.3 0 11 5.5 10.2 11.7l-.9 7.6c-.7 5.5-5.5 9.7-11 9.7H7.1C2.9 36.5-.5 33.1.1 28.9l2-14.2c.5-4.1 2.4-7.2 6.3-7.2Z" fill="url(#frame)"/>
    <path d="M8.4 8h257c6 0 10.4 5.1 9.7 11.1l-.9 7.6c-.7 5.3-5.2 9.3-10.5 9.3H7.1C3.2 36 .1 32.8.6 29l2-14.2C3.1 10.9 4.8 8 8.4 8Z" stroke="#fff" stroke-opacity=".08"/>
    <path d="M244 7.5h21.3c6.3 0 11 5.5 10.2 11.7l-.9 7.6c-.7 5.5-5.5 9.7-11 9.7H226l26.5-14.2L244 7.5Z" fill="url(#edge)"/>
    <path d="M3.4 14.9 15 7.5h37L2.4 26.4l1-11.5Z" fill="#f26c1c" fill-opacity=".12"/>
    <path d="M5 9.5h258c5.2 0 9.2 4.1 9.2 9.3 0 0-39.2-3.2-81.3-4.1C110.8 13 36.7 17 3 20l.6-4.2C4 12.8 5 9.5 5 9.5Z" fill="#fff" fill-opacity=".035"/>
  </g>
</svg>
